<mxfile host="65bd71144e">
    <diagram id="5dVgRDaDsjrhaObJ4LGE" name="第 1 页">
        <mxGraphModel dx="1149" dy="2129" grid="1" gridSize="10" guides="1" tooltips="1" connect="1" arrows="1" fold="1" page="1" pageScale="1.25" pageWidth="1600" pageHeight="900" math="0" shadow="0">
            <root>
                <mxCell id="0"/>
                <mxCell id="1" parent="0"/>
                <mxCell id="13" style="edgeStyle=none;html=1;entryX=1;entryY=0.5;entryDx=0;entryDy=0;endArrow=none;endFill=0;exitX=0;exitY=0.5;exitDx=0;exitDy=0;fontSize=16;labelBackgroundColor=none;fillColor=none;" edge="1" parent="1" source="2" target="4">
                    <mxGeometry relative="1" as="geometry">
                        <mxPoint x="600" y="230" as="targetPoint"/>
                    </mxGeometry>
                </mxCell>
                <mxCell id="14" style="edgeStyle=none;html=1;endArrow=none;endFill=0;exitX=0;exitY=0.75;exitDx=0;exitDy=0;entryX=1;entryY=0;entryDx=0;entryDy=0;fontSize=16;labelBackgroundColor=none;fillColor=none;" edge="1" parent="1" source="2" target="5">
                    <mxGeometry relative="1" as="geometry"/>
                </mxCell>
                <mxCell id="40" style="edgeStyle=none;html=1;entryX=0;entryY=0.5;entryDx=0;entryDy=0;endArrow=none;endFill=0;fontSize=16;labelBackgroundColor=none;fillColor=none;" edge="1" parent="1" source="2" target="37">
                    <mxGeometry relative="1" as="geometry"/>
                </mxCell>
                <mxCell id="48" value="" style="edgeStyle=none;html=1;endArrow=none;endFill=0;fontSize=16;labelBackgroundColor=none;fillColor=none;" edge="1" parent="1" source="2" target="9">
                    <mxGeometry relative="1" as="geometry"/>
                </mxCell>
                <mxCell id="2" value="高校学生" style="rounded=1;whiteSpace=wrap;html=1;fontSize=16;labelBackgroundColor=none;fillColor=none;" vertex="1" parent="1">
                    <mxGeometry x="620" y="230" width="120" height="60" as="geometry"/>
                </mxCell>
                <mxCell id="3" value="账号" style="ellipse;whiteSpace=wrap;html=1;fontSize=16;labelBackgroundColor=none;fillColor=none;" vertex="1" parent="1">
                    <mxGeometry x="460" y="120" width="120" height="80" as="geometry"/>
                </mxCell>
                <mxCell id="4" value="密码" style="ellipse;whiteSpace=wrap;html=1;fontSize=16;labelBackgroundColor=none;fillColor=none;" vertex="1" parent="1">
                    <mxGeometry x="430" y="220" width="120" height="80" as="geometry"/>
                </mxCell>
                <mxCell id="5" value="邮箱" style="ellipse;whiteSpace=wrap;html=1;fontSize=16;labelBackgroundColor=none;fillColor=none;" vertex="1" parent="1">
                    <mxGeometry x="460" y="320" width="120" height="80" as="geometry"/>
                </mxCell>
                <mxCell id="8" value="简历" style="rounded=1;whiteSpace=wrap;html=1;fontSize=16;labelBackgroundColor=none;fillColor=none;" vertex="1" parent="1">
                    <mxGeometry x="620" width="120" height="60" as="geometry"/>
                </mxCell>
                <mxCell id="49" value="" style="edgeStyle=none;html=1;endArrow=none;endFill=0;fontSize=16;labelBackgroundColor=none;fillColor=none;" edge="1" parent="1" source="9" target="8">
                    <mxGeometry relative="1" as="geometry"/>
                </mxCell>
                <mxCell id="9" value="拥有" style="rhombus;whiteSpace=wrap;html=1;fontSize=16;labelBackgroundColor=none;fillColor=none;" vertex="1" parent="1">
                    <mxGeometry x="620" y="110" width="120" height="80" as="geometry"/>
                </mxCell>
                <mxCell id="12" value="" style="endArrow=none;html=1;entryX=1;entryY=1;entryDx=0;entryDy=0;exitX=0;exitY=0.25;exitDx=0;exitDy=0;fontSize=16;labelBackgroundColor=none;fillColor=none;" edge="1" parent="1" source="2" target="3">
                    <mxGeometry width="50" height="50" relative="1" as="geometry">
                        <mxPoint x="730" y="210" as="sourcePoint"/>
                        <mxPoint x="780" y="160" as="targetPoint"/>
                    </mxGeometry>
                </mxCell>
                <mxCell id="25" style="edgeStyle=none;html=1;entryX=0.5;entryY=0;entryDx=0;entryDy=0;endArrow=none;endFill=0;fontSize=16;labelBackgroundColor=none;fillColor=none;" edge="1" parent="1" source="21" target="23">
                    <mxGeometry relative="1" as="geometry"/>
                </mxCell>
                <mxCell id="50" value="" style="edgeStyle=none;html=1;endArrow=none;endFill=0;entryX=0.054;entryY=0.231;entryDx=0;entryDy=0;exitX=1;exitY=0.75;exitDx=0;exitDy=0;entryPerimeter=0;fontSize=16;labelBackgroundColor=none;fillColor=none;" edge="1" parent="1" source="21" target="30">
                    <mxGeometry relative="1" as="geometry"/>
                </mxCell>
                <mxCell id="52" style="edgeStyle=none;html=1;endArrow=none;endFill=0;exitX=0.75;exitY=0;exitDx=0;exitDy=0;fontSize=16;labelBackgroundColor=none;fillColor=none;" edge="1" parent="1" source="21">
                    <mxGeometry relative="1" as="geometry">
                        <mxPoint x="1166" y="-30" as="targetPoint"/>
                    </mxGeometry>
                </mxCell>
                <mxCell id="53" value="" style="edgeStyle=none;html=1;endArrow=none;endFill=0;fontSize=16;labelBackgroundColor=none;fillColor=none;" edge="1" parent="1" source="21" target="29">
                    <mxGeometry relative="1" as="geometry"/>
                </mxCell>
                <mxCell id="54" style="edgeStyle=none;html=1;exitX=0.25;exitY=0;exitDx=0;exitDy=0;endArrow=none;endFill=0;fontSize=16;labelBackgroundColor=none;fillColor=none;" edge="1" parent="1" source="21" target="27">
                    <mxGeometry relative="1" as="geometry"/>
                </mxCell>
                <mxCell id="55" style="edgeStyle=none;html=1;exitX=0;exitY=0.75;exitDx=0;exitDy=0;endArrow=none;endFill=0;fontSize=16;labelBackgroundColor=none;fillColor=none;" edge="1" parent="1" source="21" target="31">
                    <mxGeometry relative="1" as="geometry"/>
                </mxCell>
                <mxCell id="21" value="用人单位" style="rounded=1;whiteSpace=wrap;html=1;fontSize=16;labelBackgroundColor=none;fillColor=none;" vertex="1" parent="1">
                    <mxGeometry x="1000" width="120" height="60" as="geometry"/>
                </mxCell>
                <mxCell id="26" style="edgeStyle=none;html=1;entryX=0.5;entryY=0;entryDx=0;entryDy=0;endArrow=none;endFill=0;fontSize=16;labelBackgroundColor=none;fillColor=none;" edge="1" parent="1" source="23" target="24">
                    <mxGeometry relative="1" as="geometry"/>
                </mxCell>
                <mxCell id="23" value="发布" style="rhombus;whiteSpace=wrap;html=1;fontSize=16;labelBackgroundColor=none;fillColor=none;" vertex="1" parent="1">
                    <mxGeometry x="1000" y="110" width="120" height="80" as="geometry"/>
                </mxCell>
                <mxCell id="45" value="" style="edgeStyle=none;html=1;endArrow=none;endFill=0;fontSize=16;labelBackgroundColor=none;fillColor=none;" edge="1" parent="1" source="24" target="43">
                    <mxGeometry relative="1" as="geometry"/>
                </mxCell>
                <mxCell id="46" value="" style="edgeStyle=none;html=1;endArrow=none;endFill=0;fontSize=16;labelBackgroundColor=none;fillColor=none;" edge="1" parent="1" source="24" target="44">
                    <mxGeometry relative="1" as="geometry"/>
                </mxCell>
                <mxCell id="24" value="招聘信息" style="rounded=1;whiteSpace=wrap;html=1;fontSize=16;labelBackgroundColor=none;fillColor=none;" vertex="1" parent="1">
                    <mxGeometry x="1000" y="230" width="120" height="60" as="geometry"/>
                </mxCell>
                <mxCell id="27" value="账号" style="ellipse;whiteSpace=wrap;html=1;fontSize=16;labelBackgroundColor=none;fillColor=none;" vertex="1" parent="1">
                    <mxGeometry x="860" y="-80" width="120" height="80" as="geometry"/>
                </mxCell>
                <mxCell id="28" value="联系电话" style="ellipse;whiteSpace=wrap;html=1;fontSize=16;labelBackgroundColor=none;fillColor=none;" vertex="1" parent="1">
                    <mxGeometry x="1160" y="-80" width="120" height="80" as="geometry"/>
                </mxCell>
                <mxCell id="29" value="密码" style="ellipse;whiteSpace=wrap;html=1;fontSize=16;labelBackgroundColor=none;fillColor=none;" vertex="1" parent="1">
                    <mxGeometry x="1000" y="-150" width="120" height="80" as="geometry"/>
                </mxCell>
                <mxCell id="30" value="邮箱" style="ellipse;whiteSpace=wrap;html=1;fontSize=16;labelBackgroundColor=none;fillColor=none;" vertex="1" parent="1">
                    <mxGeometry x="1170" y="50" width="120" height="80" as="geometry"/>
                </mxCell>
                <mxCell id="31" value="公司名称" style="ellipse;whiteSpace=wrap;html=1;fontSize=16;labelBackgroundColor=none;fillColor=none;" vertex="1" parent="1">
                    <mxGeometry x="840" y="50" width="120" height="80" as="geometry"/>
                </mxCell>
                <mxCell id="39" style="edgeStyle=none;html=1;entryX=0;entryY=0.5;entryDx=0;entryDy=0;endArrow=none;endFill=0;fontSize=16;labelBackgroundColor=none;fillColor=none;" edge="1" parent="1" source="37" target="24">
                    <mxGeometry relative="1" as="geometry"/>
                </mxCell>
                <mxCell id="37" value="投递简历" style="rhombus;whiteSpace=wrap;html=1;fontSize=16;labelBackgroundColor=none;fillColor=none;" vertex="1" parent="1">
                    <mxGeometry x="810" y="220" width="120" height="80" as="geometry"/>
                </mxCell>
                <mxCell id="41" value="N" style="text;html=1;align=center;verticalAlign=middle;resizable=0;points=[];autosize=1;fontSize=16;labelBackgroundColor=none;fillColor=none;" vertex="1" parent="1">
                    <mxGeometry x="1055" y="200" width="30" height="20" as="geometry"/>
                </mxCell>
                <mxCell id="42" value="M" style="text;html=1;align=center;verticalAlign=middle;resizable=0;points=[];autosize=1;fontSize=16;labelBackgroundColor=none;fillColor=none;" vertex="1" parent="1">
                    <mxGeometry x="765" y="240" width="30" height="20" as="geometry"/>
                </mxCell>
                <mxCell id="43" value="类别" style="ellipse;whiteSpace=wrap;html=1;fontSize=16;labelBackgroundColor=none;fillColor=none;" vertex="1" parent="1">
                    <mxGeometry x="1170" y="170" width="120" height="80" as="geometry"/>
                </mxCell>
                <mxCell id="44" value="薪资" style="ellipse;whiteSpace=wrap;html=1;fontSize=16;labelBackgroundColor=none;fillColor=none;" vertex="1" parent="1">
                    <mxGeometry x="1170" y="280" width="120" height="80" as="geometry"/>
                </mxCell>
                <mxCell id="59" value="" style="edgeStyle=none;html=1;labelBackgroundColor=none;fontSize=16;endArrow=none;endFill=0;" edge="1" parent="1" source="56" target="24">
                    <mxGeometry relative="1" as="geometry"/>
                </mxCell>
                <mxCell id="56" value="爬取" style="rhombus;whiteSpace=wrap;html=1;fontSize=16;labelBackgroundColor=none;fillColor=none;" vertex="1" parent="1">
                    <mxGeometry x="1000" y="330" width="120" height="80" as="geometry"/>
                </mxCell>
                <mxCell id="58" value="" style="edgeStyle=none;html=1;labelBackgroundColor=none;fontSize=16;endArrow=none;endFill=0;" edge="1" parent="1" source="57" target="56">
                    <mxGeometry relative="1" as="geometry"/>
                </mxCell>
                <mxCell id="57" value="网络爬虫" style="rounded=1;whiteSpace=wrap;html=1;fontSize=16;labelBackgroundColor=none;fillColor=none;" vertex="1" parent="1">
                    <mxGeometry x="1000" y="440" width="120" height="60" as="geometry"/>
                </mxCell>
                <mxCell id="60" value="N" style="text;html=1;align=center;verticalAlign=middle;resizable=0;points=[];autosize=1;fontSize=16;labelBackgroundColor=none;fillColor=none;" vertex="1" parent="1">
                    <mxGeometry x="1055" y="300" width="30" height="20" as="geometry"/>
                </mxCell>
            </root>
        </mxGraphModel>
    </diagram>
</mxfile>